<?xml version="1.0" standalone="no"?>
<!DOCTYPE svg PUBLIC "-//W3C//DTD SVG 20010904//EN"
 "http://www.w3.org/TR/2001/REC-SVG-20010904/DTD/svg10.dtd">
<svg version="1.0" xmlns="http://www.w3.org/2000/svg"
 width="500.000000pt" height="500.000000pt" viewBox="0 0 500.000000 500.000000"
 preserveAspectRatio="xMidYMid meet">
<metadata>
Created by potrace 1.11, written by Peter Selinger 2001-2013
</metadata>
<g transform="translate(0.000000,500.000000) scale(0.100000,-0.100000)"
fill="#000000" stroke="none">
<path d="M2241 4749 c-416 -46 -838 -224 -1169 -490 -104 -85 -273 -257 -351
-358 -36 -46 -60 -82 -55 -80 5 2 46 23 91 47 170 87 323 123 523 123 208 0
386 -41 552 -128 l87 -46 70 26 c168 63 313 88 503 88 390 0 728 -140 1003
-416 248 -247 381 -532 415 -885 24 -241 -29 -530 -136 -743 -64 -128 -174
-286 -248 -357 -36 -34 -37 -35 -14 -42 38 -10 311 -9 393 3 247 34 427 118
575 269 96 98 166 216 215 362 37 112 38 115 43 309 3 124 0 239 -7 310 -35
323 -141 644 -301 912 -347 583 -926 976 -1595 1083 -119 19 -473 27 -594 13z"/>
<path d="M2340 3693 c-67 -10 -210 -45 -215 -53 -3 -5 19 -40 48 -80 148 -196
255 -451 377 -895 121 -442 307 -847 463 -1012 56 -59 102 -87 160 -98 36 -7
38 -6 154 112 170 171 259 325 320 550 25 91 27 113 27 293 0 178 -3 203 -26
290 -126 466 -495 805 -962 885 -80 13 -281 18 -346 8z"/>
<path d="M1144 3606 c-238 -39 -426 -137 -589 -307 -94 -98 -160 -194 -216
-314 -80 -171 -90 -211 -96 -400 -21 -635 209 -1217 657 -1665 370 -371 837
-594 1358 -651 142 -15 461 -7 592 16 562 95 1070 396 1413 836 37 48 67 89
67 92 0 3 -28 -1 -62 -9 -267 -63 -573 -80 -808 -45 -80 11 -182 30 -225 42
-44 12 -91 22 -105 22 -14 0 -65 -17 -113 -37 -526 -219 -1157 -80 -1560 343
-148 156 -249 324 -317 530 -51 151 -72 283 -72 451 0 384 134 712 409 1001
l73 76 -57 12 c-90 19 -258 22 -349 7z"/>
<path d="M1713 3410 c-161 -137 -283 -319 -353 -528 -79 -235 -80 -502 -3
-737 48 -150 156 -336 257 -444 42 -45 165 -151 175 -151 4 0 16 28 25 63 34
122 119 308 315 686 l199 385 -25 65 c-82 221 -194 442 -278 551 -55 72 -189
180 -222 180 -4 0 -45 -31 -90 -70z"/>
<path d="M2323 2308 c-159 -362 -227 -565 -244 -726 -7 -68 -8 -123 -2 -152 8
-44 10 -45 68 -63 178 -54 448 -62 624 -17 47 11 87 23 89 25 3 3 -15 28 -40
57 -134 158 -224 365 -353 813 -32 110 -61 206 -64 213 -4 7 -37 -56 -78 -150z"/>
</g>
</svg>
